<svg
  class="camsLogo"
  version="1.1"
  xmlns="http://www.w3.org/2000/svg"
  xmlns:xlink="http://www.w3.org/1999/xlink"
  xml:space="preserve"
  x="0px"
  y="0px"
  viewBox="0 0 64 20"
>
  <path fill="white" d="M9.4,17.3c-1.9,0-3.9-1-5-2.1S3,12.2,3.2,10.5C3.3,9.3,3.7,8,4.4,6.9s2-2.2,3.3-2.9c1.3-0.7,3-1.2,4.3-1.2 c0.9,0,2.2,0.3,2.9,0.6c0.8,0.3,1.4,0.9,1.9,1.5l2.6-2C17.6,1,15.2,0,12.4,0c-2,0-3.9,0.5-5.8,1.5s-3.3,2.3-4.5,4 c-1.2,1.7-1.9,3.4-2.1,5.3c-0.2,1.7,0.1,3.3,0.8,4.8c0.7,1.5,1.7,2.6,3,3.3c1.3,0.8,3,1.1,5,1.1c2.8,0,5.4-0.8,7.8-2.3l-1.5-2.3 C13.5,16.5,11.4,17.3,9.4,17.3z M25.8,4.9c-0.8-0.3-2-0.5-3.2-0.5c-4.9,0-7.4,3.8-7.4,7.4c0,2.1,1.2,3.6,3.1,3.6 c1.3,0,2.7-0.7,3.8-2.6h0C22,13.7,22,14.6,22,15.2h2.3c0-1.3,0.1-3.2,0.4-4.8L25.8,4.9z M22.4,9.3c-0.5,2.7-1.9,4.1-3.1,4.1 c-1.1,0-1.5-0.9-1.5-2c0-2.4,1.8-5,4.1-5c0.5,0,0.8,0,1,0.1L22.4,9.3z M41.1,7.3c0-1.9-1.1-2.8-2.5-2.8c-1.5,0-2.8,0.7-3.7,2.2 c-0.1-1.1-0.8-2.2-2.5-2.2c-1.4,0-2.7,0.7-3.7,2.1h0l0.2-1.8h-2.2c-0.1,0.9-0.3,2-0.5,3.3l-1.3,7.2h2.4l0.9-5 c0.4-2.1,1.7-3.7,2.9-3.7c1,0,1.3,0.7,1.3,1.5c0,0.4-0.1,0.8-0.1,1.2l-1.1,6h2.4l0.9-5c0.4-2.2,1.7-3.7,2.8-3.7 c0.9,0,1.3,0.6,1.3,1.5c0,0.4-0.1,0.9-0.2,1.3l-1.1,5.9h2.4l1.1-6.1C41,8.5,41.1,7.7,41.1,7.3z M45.6,9c-0.9-0.5-1.4-0.9-1.4-1.5 c0-0.7,0.6-1.2,1.6-1.2c0.9,0,1.6,0.3,2,0.5L48.4,5C48,4.7,47.1,4.5,46,4.5c-2.5,0-4.3,1.4-4.3,3.5c0,1.2,0.9,2.1,2.1,2.7 c1,0.5,1.4,1,1.4,1.6c0,0.7-0.6,1.3-1.6,1.3c-0.9,0-2-0.4-2.5-0.7l-0.6,1.8c0.6,0.4,1.7,0.8,2.9,0.8c2.5,0,4.5-1.3,4.5-3.6 C47.8,10.5,46.8,9.6,45.6,9z M48,14c-0.4,0-0.8,0.4-0.8,0.8c0,0.4,0.3,0.7,0.6,0.7c0.5,0,0.8-0.3,0.8-0.8C48.7,14.3,48.4,14,48,14z M51.9,11.6c0.3,0,0.5,0.1,0.7,0.1l0.3-0.8c-0.2-0.1-0.5-0.2-0.9-0.2c-1.7,0-2.8,1.3-2.8,2.9c0,1.1,0.7,1.8,1.8,1.8 c0.6,0,1-0.1,1.3-0.3l0-0.8c-0.2,0.1-0.5,0.2-0.9,0.2c-0.6,0-1-0.4-1-1.1C50.3,12.6,50.9,11.6,51.9,11.6z M55.2,10.8 c-1.5,0-2.6,1.3-2.6,2.8c0,1.1,0.7,1.9,1.8,1.9c1.5,0,2.6-1.3,2.6-2.8C57.1,11.6,56.4,10.8,55.2,10.8z M54.6,14.6 c-0.6,0-0.9-0.4-0.9-1.1c0-0.8,0.5-2,1.4-2c0.6,0,0.9,0.6,0.9,1C56,13.5,55.4,14.6,54.6,14.6z M62.9,10.8c-0.6,0-1.2,0.3-1.6,0.9 c0-0.5-0.4-0.9-1.1-0.9c-0.6,0-1.2,0.3-1.6,0.9h0l0.1-0.8h-0.9c-0.1,0.4-0.1,0.9-0.2,1.4l-0.6,3.1h1l0.4-2.1 c0.2-0.9,0.7-1.6,1.2-1.6c0.4,0,0.5,0.3,0.5,0.6c0,0.2,0,0.3-0.1,0.5l-0.5,2.5h1l0.4-2.1c0.2-0.9,0.7-1.6,1.2-1.6 c0.4,0,0.5,0.3,0.5,0.6c0,0.2,0,0.4-0.1,0.6l-0.5,2.5h1l0.5-2.6c0-0.2,0.1-0.6,0.1-0.8C64,11.1,63.5,10.8,62.9,10.8z"></path>
</svg>
