<svg xmlns="http://www.w3.org/2000/svg"
  viewBox="0 0 256 256"
  role="img"
  aria-labelledby="title desc">
  <title id="title">Europe</title>
  <desc id="desc">Minimal outline map of Europe.</desc>
  <path
    d="M 55.31 178.66 L 57.33 173.29 L 55.67 167.27 L 59.43 165.35 L 75.57 166.22 L 76.94 164.62 L 77.45 159.33 L 72.75 155.20 L 68.69 154.18 L 68.42 152.24 L 76.32 152.35 L 75.48 149.34 L 77.99 150.48 L 84.18 148.41 L 84.97 146.23 L 90.79 144.44 L 93.12 140.53 L 102.19 139.37 L 104.00 138.07 L 102.19 134.09 L 103.31 129.86 L 108.72 128.21 L 107.85 130.44 L 109.61 131.59 L 106.25 134.22 L 107.02 136.54 L 109.68 138.10 L 113.87 136.87 L 118.13 138.77 L 127.43 135.86 L 132.84 136.99 L 137.12 134.96 L 136.64 130.73 L 137.95 129.06 L 140.45 128.15 L 142.56 130.13 L 144.69 130.08 L 145.51 126.48 L 142.85 125.87 L 142.62 124.34 L 154.95 123.58 L 157.97 122.11 L 155.18 120.84 L 141.37 122.59 L 137.26 120.27 L 137.85 117.65 L 136.56 115.26 L 137.83 113.71 L 148.09 108.60 L 144.11 106.23 L 139.55 106.98 L 136.97 108.83 L 137.38 110.46 L 128.03 114.88 L 126.09 118.62 L 130.53 121.96 L 128.09 124.96 L 125.32 125.58 L 122.80 132.53 L 119.58 132.27 L 118.08 134.38 L 115.00 134.50 L 108.13 123.59 L 102.88 126.66 L 99.34 127.29 L 95.67 125.93 L 93.88 116.95 L 108.58 110.27 L 119.83 101.43 L 131.58 96.10 L 141.78 95.08 L 145.82 92.88 L 155.44 92.47 L 163.75 94.41 L 160.32 95.12 L 163.23 96.79 L 165.97 95.87 L 177.61 98.11 L 189.69 102.37 L 189.86 104.14 L 182.58 106.25 L 168.77 104.56 L 173.10 106.51 L 173.44 110.46 L 178.94 111.96 L 179.28 110.67 L 177.68 109.53 L 179.37 108.52 L 185.79 110.17 L 188.03 109.53 L 186.24 107.58 L 192.43 104.98 L 197.36 106.06 L 198.91 104.23 L 196.70 102.65 L 198.00 101.06 L 196.04 99.42 L 203.48 100.27 L 204.99 101.75 L 201.63 102.08 L 201.65 103.56 L 203.74 104.47 L 223.31 98.65 L 225.31 98.78 L 222.70 100.40 L 236.82 98.59 L 240.00 100.10 L 240.00 146.51 L 231.44 145.97 L 228.62 147.09 L 219.62 144.18 L 215.47 144.25 L 209.99 147.14 L 209.66 149.08 L 206.93 147.54 L 204.05 153.01 L 208.28 154.74 L 211.05 158.31 L 204.62 163.07 L 209.68 170.50 L 207.63 172.25 L 201.40 168.66 L 186.75 166.18 L 178.04 161.38 L 182.18 158.73 L 180.69 157.68 L 184.54 156.02 L 173.49 158.65 L 173.65 160.30 L 177.66 160.78 L 177.14 161.73 L 170.62 163.72 L 169.15 163.18 L 169.73 161.94 L 166.83 161.16 L 169.84 159.77 L 169.07 159.16 L 162.30 157.82 L 159.32 161.93 L 157.22 162.26 L 154.13 168.46 L 154.99 169.98 L 149.99 170.46 L 151.29 171.16 L 149.84 173.12 L 143.61 173.48 L 145.46 174.98 L 140.72 174.63 L 142.64 177.46 L 141.64 178.04 L 144.44 180.04 L 144.48 181.54 L 142.02 180.83 L 142.80 182.19 L 141.12 182.47 L 142.12 184.81 L 138.18 183.69 L 136.72 179.80 L 132.17 174.64 L 132.08 170.32 L 123.16 165.99 L 120.20 161.83 L 118.50 161.41 L 117.68 162.55 L 117.64 160.46 L 115.53 160.07 L 113.37 161.01 L 114.06 164.44 L 120.84 170.12 L 122.92 170.10 L 122.83 171.22 L 129.71 174.86 L 129.21 175.81 L 125.43 174.13 L 124.31 175.85 L 126.23 176.84 L 125.92 178.22 L 123.39 180.66 L 122.28 180.86 L 123.41 178.06 L 121.56 175.18 L 112.78 170.78 L 108.54 167.52 L 107.71 164.90 L 104.23 163.71 L 97.96 167.00 L 88.85 167.14 L 88.69 170.28 L 82.77 172.61 L 79.88 177.14 L 80.91 178.66 L 74.92 184.14 L 69.01 184.13 L 66.34 186.08 L 63.30 183.43 L 56.98 183.63 L 57.14 179.91 L 55.31 178.66 Z M 103.01 177.51 L 102.29 172.79 L 105.08 172.10 L 106.68 173.98 L 106.30 177.49 L 103.01 177.51 Z M 105.56 167.31 L 106.01 169.59 L 105.14 171.64 L 103.32 169.32 L 105.56 167.31 Z M 54.88 138.44 L 62.73 135.00 L 65.58 136.65 L 64.16 138.47 L 64.59 140.37 L 62.59 142.74 L 57.88 144.31 L 54.12 143.91 L 56.27 141.14 L 54.88 138.44 Z M 67.12 135.30 L 68.08 134.11 L 67.21 133.38 L 65.78 134.64 L 64.28 130.72 L 65.25 127.98 L 67.31 125.82 L 72.64 125.81 L 69.80 128.68 L 75.41 128.33 L 72.33 132.88 L 75.08 133.05 L 81.87 140.96 L 85.09 141.47 L 83.41 143.95 L 84.47 145.32 L 82.08 146.71 L 65.27 148.32 L 71.55 144.96 L 66.63 143.46 L 69.40 142.63 L 67.95 141.20 L 68.45 139.46 L 72.41 139.70 L 72.80 138.16 L 67.12 135.30 Z M 112.73 136.00 L 109.95 134.49 L 109.58 133.39 L 113.48 132.51 L 114.33 133.84 L 112.73 136.00 Z M 20.15 111.66 L 22.77 110.49 L 16.99 109.19 L 21.69 108.67 L 16.00 107.28 L 17.79 105.55 L 21.82 105.15 L 25.96 106.96 L 30.00 105.51 L 33.34 106.26 L 42.08 105.03 L 41.47 106.75 L 44.47 108.56 L 41.01 110.59 L 31.06 112.89 L 20.15 111.66 Z M 113.64 181.65 L 114.01 180.29 L 121.85 180.01 L 120.73 184.29 L 113.64 181.65 Z M 131.16 72.87 L 126.09 77.53 L 122.89 77.63 L 117.18 76.01 L 119.59 75.07 L 110.43 72.06 L 108.36 69.98 L 125.75 68.92 L 137.85 71.83 L 131.16 72.87 Z M 143.57 186.72 L 150.45 187.79 L 146.30 188.80 L 143.08 187.85 L 143.57 186.72 Z M 227.83 89.32 L 228.37 91.53 L 233.45 93.70 L 223.20 93.59 L 222.50 92.41 L 217.69 91.70 L 217.30 90.27 L 225.20 85.98 L 222.76 85.66 L 229.12 83.33 L 228.40 82.12 L 240.00 79.62 L 240.00 82.93 L 227.83 89.32 Z M 146.29 74.76 L 140.36 75.84 L 135.67 75.23 L 137.51 74.54 L 135.90 73.69 L 141.41 73.16 L 146.29 74.76 Z M 126.75 68.21 L 141.50 67.31 L 153.42 68.91 L 141.78 70.65 L 126.75 68.21 Z M 217.48 67.20 L 207.02 69.03 L 204.15 68.40 L 205.66 67.57 L 199.75 67.49 L 217.48 67.20 Z"
    fill="none"
    stroke="currentColor"
    stroke-width="1"
    stroke-linecap="round"
    stroke-linejoin="round"
    vector-effect="non-scaling-stroke"
  />
</svg>
