<svg xmlns="http://www.w3.org/2000/svg"
  viewBox="0 0 256 256"
  role="img"
  aria-labelledby="title desc">
  <title id="title">North America</title>
  <desc id="desc">Minimal outline map of North America.</desc>
  <path
    d="M 40.99 166.27 L 39.32 166.93 L 39.43 165.15 L 40.99 166.27 Z M 125.29 159.24 L 126.05 164.61 L 130.13 168.29 L 135.52 166.60 L 136.25 164.07 L 141.01 163.27 L 138.24 171.62 L 146.39 172.53 L 146.40 179.73 L 149.30 182.10 L 152.05 180.88 L 154.29 181.42 L 155.22 183.80 L 154.55 184.41 L 152.72 181.79 L 150.11 184.41 L 143.07 180.41 L 140.37 175.44 L 134.84 174.51 L 129.73 171.15 L 126.98 171.96 L 116.73 168.07 L 113.79 165.62 L 113.00 161.45 L 103.84 152.33 L 102.49 149.05 L 100.08 148.13 L 100.23 150.54 L 107.97 160.84 L 107.09 161.38 L 103.91 158.55 L 103.74 156.67 L 99.67 154.15 L 100.99 152.90 L 96.36 146.29 L 91.45 143.98 L 85.88 135.56 L 86.61 127.87 L 85.45 123.94 L 87.76 124.15 L 88.55 125.54 L 88.18 122.73 L 84.07 120.64 L 81.39 120.03 L 80.78 117.82 L 78.89 117.19 L 71.59 109.27 L 52.34 105.19 L 45.55 107.74 L 47.17 104.60 L 42.15 107.45 L 43.23 108.17 L 41.83 109.23 L 35.63 112.41 L 26.25 114.76 L 36.68 110.08 L 37.69 108.09 L 30.41 108.46 L 29.60 106.51 L 25.43 105.75 L 24.85 103.43 L 26.58 101.85 L 32.18 100.93 L 31.08 99.99 L 32.17 99.43 L 26.00 99.93 L 21.35 98.12 L 26.71 96.79 L 30.84 97.47 L 23.33 94.15 L 38.37 89.73 L 68.01 93.36 L 80.36 91.02 L 83.87 92.50 L 85.84 91.50 L 86.04 92.62 L 90.20 92.03 L 101.38 94.10 L 99.30 94.83 L 108.79 95.60 L 110.39 94.85 L 108.89 94.22 L 109.84 93.72 L 119.75 95.21 L 124.20 95.01 L 125.34 93.83 L 127.62 94.33 L 127.62 95.73 L 130.41 93.11 L 127.11 91.60 L 127.22 89.97 L 130.92 89.13 L 134.42 91.45 L 133.11 92.17 L 135.85 92.47 L 135.85 93.98 L 137.82 92.83 L 140.57 95.87 L 143.19 93.53 L 143.27 91.91 L 147.55 92.24 L 149.62 93.70 L 148.52 94.49 L 149.38 96.00 L 142.91 96.81 L 140.61 99.44 L 135.62 101.16 L 130.40 105.17 L 129.74 108.05 L 131.91 108.29 L 133.27 110.79 L 148.07 113.66 L 148.29 116.42 L 151.55 119.47 L 153.49 117.48 L 151.67 114.37 L 156.53 111.61 L 153.61 108.26 L 155.35 106.71 L 154.22 103.07 L 160.52 102.89 L 166.79 104.93 L 167.24 108.03 L 169.66 109.13 L 174.18 106.00 L 178.89 110.97 L 178.29 111.90 L 187.21 116.43 L 187.32 118.09 L 180.90 120.90 L 171.50 120.92 L 164.55 125.95 L 173.48 122.39 L 174.79 123.11 L 173.40 124.11 L 174.35 126.81 L 176.26 127.55 L 178.70 127.33 L 180.18 125.67 L 181.24 127.28 L 173.03 130.79 L 171.85 129.43 L 174.42 128.21 L 170.41 128.44 L 165.23 131.46 L 166.24 133.60 L 160.71 134.65 L 163.31 134.65 L 160.35 134.91 L 158.94 137.59 L 158.02 136.76 L 158.72 138.38 L 157.42 140.13 L 156.81 137.28 L 156.84 138.85 L 155.87 138.62 L 157.73 142.59 L 149.45 148.66 L 151.34 155.39 L 150.86 157.86 L 148.90 156.88 L 145.95 150.88 L 139.00 150.22 L 137.26 150.55 L 137.53 152.02 L 130.98 151.21 L 126.92 153.28 L 125.29 159.24 Z M 79.90 120.46 L 83.87 120.82 L 87.19 123.46 L 84.02 122.99 L 79.90 120.46 Z M 73.84 116.68 L 72.91 115.10 L 75.02 115.18 L 74.58 116.85 L 75.87 118.04 L 73.84 116.68 Z M 41.41 110.93 L 44.30 109.59 L 44.92 110.05 L 41.41 110.93 Z M 24.94 106.06 L 24.18 106.86 L 22.31 106.18 L 23.77 105.93 L 24.94 106.06 Z M 19.25 102.10 L 16.00 100.91 L 20.49 101.63 L 19.25 102.10 Z M 117.86 92.46 L 118.31 93.57 L 113.10 92.94 L 102.24 93.89 L 96.30 91.79 L 103.57 91.19 L 95.46 90.93 L 94.69 90.39 L 98.11 89.80 L 93.25 89.43 L 99.47 86.84 L 100.98 87.12 L 100.24 87.82 L 107.25 87.36 L 109.81 89.29 L 110.55 88.68 L 109.50 87.17 L 110.80 86.95 L 113.92 87.79 L 115.31 90.27 L 120.45 91.70 L 117.86 92.46 Z M 99.00 86.60 L 87.81 90.40 L 83.62 88.97 L 86.55 86.30 L 85.11 85.39 L 99.00 86.60 Z M 111.65 86.62 L 115.25 86.68 L 113.95 87.66 L 111.65 86.62 Z M 101.61 85.24 L 104.49 84.11 L 95.75 84.02 L 99.15 82.17 L 108.51 83.65 L 106.40 82.24 L 107.75 81.70 L 113.47 83.64 L 101.61 85.24 Z M 96.64 82.09 L 90.16 83.02 L 88.16 82.70 L 97.98 80.45 L 96.64 82.09 Z M 107.35 79.93 L 104.11 80.79 L 101.92 80.32 L 103.11 79.85 L 107.35 79.93 Z M 114.26 79.36 L 115.68 78.92 L 113.79 78.00 L 120.68 78.74 L 122.38 80.06 L 114.26 79.36 Z M 107.63 79.03 L 105.83 79.32 L 103.38 79.32 L 104.92 78.67 L 107.63 79.03 Z M 145.53 102.87 L 146.62 102.19 L 148.65 102.21 L 146.89 103.31 L 145.53 102.87 Z M 151.27 100.99 L 146.83 100.44 L 143.27 101.99 L 140.76 101.27 L 142.74 98.02 L 151.27 100.99 Z M 124.53 91.52 L 126.98 92.20 L 128.32 93.05 L 122.20 92.62 L 124.53 91.52 Z M 127.00 87.95 L 126.74 89.28 L 124.32 89.85 L 118.21 88.03 L 121.25 87.74 L 119.62 86.77 L 121.37 86.06 L 125.76 86.18 L 124.77 87.32 L 127.00 87.95 Z M 127.75 87.39 L 130.01 85.63 L 135.91 86.04 L 130.36 88.74 L 127.75 87.39 Z M 131.33 84.38 L 130.52 84.95 L 126.59 84.46 L 129.50 83.39 L 131.33 84.38 Z M 126.15 81.77 L 134.29 81.72 L 137.86 83.45 L 149.76 83.30 L 151.67 84.46 L 137.01 85.07 L 126.15 81.77 Z M 120.62 83.40 L 118.20 83.52 L 118.11 82.38 L 125.24 82.50 L 124.61 84.35 L 120.59 84.27 L 120.62 83.40 Z M 131.17 80.46 L 127.55 80.58 L 127.16 80.17 L 131.17 80.46 Z M 123.92 78.63 L 126.69 78.79 L 128.45 79.30 L 125.87 80.14 L 123.92 78.63 Z M 133.10 75.11 L 142.84 77.95 L 138.08 79.50 L 132.41 79.41 L 130.83 78.81 L 132.02 77.88 L 126.75 76.74 L 133.10 75.11 Z M 178.07 180.18 L 179.63 179.05 L 179.57 180.15 L 178.07 180.18 Z M 153.88 168.17 L 156.00 167.91 L 157.03 168.67 L 155.55 168.94 L 153.88 168.17 Z M 170.34 168.58 L 172.43 167.87 L 172.69 168.16 L 170.34 168.58 Z M 167.33 166.56 L 168.12 168.20 L 165.20 167.87 L 164.12 169.09 L 159.60 167.99 L 162.74 167.51 L 161.48 165.67 L 167.33 166.56 Z M 148.07 160.84 L 159.84 165.47 L 154.74 165.76 L 155.73 164.94 L 153.31 163.19 L 148.77 161.65 L 144.08 162.75 L 148.07 160.84 Z M 153.77 158.79 L 154.54 157.91 L 155.06 160.00 L 153.77 158.79 Z M 155.85 155.82 L 155.60 156.87 L 154.69 155.15 L 155.85 155.82 Z M 152.93 155.52 L 154.64 155.83 L 153.03 156.07 L 152.93 155.52 Z M 176.71 127.21 L 175.02 125.63 L 177.98 126.51 L 176.71 127.21 Z M 185.68 121.53 L 191.16 123.19 L 191.18 126.19 L 189.54 125.97 L 189.45 124.58 L 187.74 125.86 L 181.81 124.36 L 187.04 118.85 L 185.68 121.53 Z M 174.28 121.44 L 176.73 121.69 L 178.28 122.58 L 175.65 122.14 L 174.28 121.44 Z M 151.93 104.08 L 151.53 102.97 L 152.51 103.31 L 151.93 104.08 Z M 158.65 95.30 L 155.87 96.01 L 155.50 95.29 L 157.48 94.26 L 158.65 95.30 Z M 167.98 90.96 L 170.66 92.93 L 167.95 93.62 L 178.21 96.36 L 175.16 99.12 L 169.12 97.25 L 174.05 101.49 L 173.55 102.55 L 167.98 100.96 L 171.85 103.64 L 159.05 99.59 L 153.55 99.74 L 154.53 98.66 L 160.34 98.44 L 162.27 95.74 L 161.30 94.58 L 152.96 91.49 L 138.61 91.13 L 137.38 90.61 L 138.92 89.93 L 136.82 89.93 L 136.36 88.43 L 139.01 86.51 L 142.82 86.12 L 141.73 87.07 L 142.90 87.99 L 148.00 86.19 L 150.54 87.72 L 150.32 88.69 L 154.63 87.67 L 167.98 90.96 Z M 238.75 72.94 L 222.43 73.72 L 236.94 74.41 L 235.32 75.27 L 240.00 74.64 L 240.00 81.48 L 237.52 81.95 L 240.00 82.66 L 239.01 84.12 L 240.00 85.42 L 237.65 85.50 L 238.87 86.62 L 234.74 86.85 L 236.61 88.51 L 232.92 88.29 L 237.41 90.75 L 231.82 89.62 L 232.32 90.62 L 230.61 91.40 L 236.53 91.54 L 210.75 98.44 L 206.31 102.53 L 206.91 103.69 L 205.49 106.35 L 198.28 105.23 L 193.30 101.14 L 189.85 95.88 L 194.43 91.84 L 188.80 92.31 L 189.28 90.52 L 193.66 90.89 L 187.10 89.29 L 188.75 87.91 L 183.04 83.59 L 168.39 82.78 L 164.11 81.39 L 170.96 80.84 L 161.32 79.86 L 172.52 77.86 L 169.10 76.80 L 180.53 73.97 L 195.13 73.37 L 203.80 74.52 L 200.49 73.09 L 217.73 71.59 L 238.75 72.94 Z M 156.96 87.56 L 151.75 87.59 L 150.19 86.28 L 156.96 87.56 Z M 134.32 74.17 L 162.01 72.20 L 178.22 73.09 L 169.64 74.75 L 172.86 74.74 L 164.44 77.26 L 155.99 77.97 L 158.22 79.15 L 151.78 81.09 L 154.54 81.73 L 150.59 82.61 L 137.41 82.18 L 139.96 81.13 L 139.23 80.07 L 144.08 80.60 L 139.67 79.37 L 143.90 77.94 L 141.19 76.60 L 148.69 76.28 L 140.20 76.21 L 134.32 74.17 Z"
    fill="none"
    stroke="currentColor"
    stroke-width="1"
    stroke-linecap="round"
    stroke-linejoin="round"
    vector-effect="non-scaling-stroke"
  />
</svg>
