<svg xmlns="http://www.w3.org/2000/svg"
  viewBox="0 0 256 256"
  role="img"
  aria-labelledby="title desc">
  <title id="title">South America</title>
  <desc id="desc">Minimal outline map of South America.</desc>
  <path
    d="M 91.20 240.00 L 81.20 236.69 L 73.29 231.22 L 85.01 235.30 L 87.78 231.53 L 93.17 230.56 L 96.08 234.56 L 104.99 237.37 L 91.20 240.00 Z M 88.85 230.24 L 83.95 234.58 L 72.36 229.33 L 70.18 217.50 L 75.06 211.78 L 70.06 210.82 L 74.32 202.43 L 77.98 203.59 L 79.70 196.75 L 77.49 195.88 L 76.46 199.99 L 74.38 199.53 L 78.06 186.45 L 76.84 179.52 L 83.92 163.90 L 83.75 152.17 L 88.37 127.55 L 87.44 117.51 L 68.85 105.31 L 56.48 80.73 L 51.57 77.24 L 51.04 72.63 L 56.45 65.77 L 52.50 64.42 L 55.40 54.47 L 59.47 52.46 L 65.16 44.32 L 62.68 33.19 L 64.02 28.90 L 69.96 25.87 L 72.49 20.47 L 77.41 19.99 L 82.88 16.00 L 84.92 17.07 L 82.25 19.34 L 83.08 27.10 L 85.24 24.50 L 84.05 20.84 L 88.15 19.50 L 88.85 16.91 L 94.62 22.21 L 105.51 23.78 L 115.44 21.68 L 112.64 22.65 L 113.76 24.21 L 118.90 26.08 L 119.42 28.72 L 124.60 30.63 L 131.04 37.31 L 141.56 38.03 L 139.69 49.39 L 144.92 50.00 L 150.27 43.15 L 154.70 51.28 L 153.33 57.27 L 159.16 57.78 L 159.28 61.09 L 161.78 58.93 L 171.41 62.12 L 172.48 65.88 L 187.65 66.48 L 196.74 72.90 L 202.10 73.99 L 204.96 81.22 L 203.65 86.67 L 191.95 100.06 L 190.00 115.92 L 184.47 129.34 L 181.03 132.75 L 172.26 134.00 L 162.36 139.06 L 159.57 142.33 L 158.27 151.55 L 142.06 170.42 L 134.12 171.95 L 126.82 168.81 L 132.23 178.68 L 129.06 182.91 L 124.17 184.68 L 113.94 185.03 L 114.56 191.13 L 112.58 192.29 L 104.76 192.41 L 105.22 195.68 L 110.24 197.35 L 104.55 200.42 L 103.29 205.50 L 97.59 207.20 L 96.64 209.67 L 103.04 212.76 L 91.51 224.28 L 94.77 229.62 L 88.85 230.24 Z M 128.07 228.13 L 119.33 229.45 L 117.68 227.97 L 126.42 225.50 L 128.07 228.13 Z"
    fill="none"
    stroke="currentColor"
    stroke-width="1"
    stroke-linecap="round"
    stroke-linejoin="round"
    vector-effect="non-scaling-stroke"
  />
</svg>
