<svg xmlns="http://www.w3.org/2000/svg" width="80" height="28" viewBox="0 0 80 28" fill="none"><g clip-path="url(#clip0_8063_20530)"><path d="M25.3452 1.5V13.3307H2.96822L25.3452 1.5ZM0 16.1866H14.7184V25.4304L0 16.1866Z" fill="#1A6DDA"></path><path d="M58.6179 25.403V20.3323C58.6179 16.392 60.4042 13.8419 64.0338 13.8419C64.293 13.8419 64.6388 13.8419 64.8694 13.8709L65.0711 10.9734C64.6963 10.8578 64.4081 10.8578 64.0629 10.8578C61.5851 10.8578 59.7703 12.1904 58.6179 14.1027V11.0315H55.6223V25.403H58.6179ZM72.3752 25.7855C76.5758 25.7855 79.9999 22.6978 79.9999 18.2112C79.9999 13.7252 76.5758 10.666 72.3752 10.666C68.1456 10.666 64.693 13.7252 64.693 18.2112C64.693 22.6978 68.1456 25.7855 72.3752 25.7855ZM72.3752 23.1641C69.8722 23.1641 67.6278 21.2118 67.6278 18.2112C67.6278 15.2107 69.8722 13.2589 72.3752 13.2589C74.8207 13.2589 77.0941 15.2107 77.0941 18.2112C77.0941 21.2118 74.8207 23.1641 72.3752 23.1641ZM45.8662 25.7855C48.0716 25.7855 49.647 24.9197 50.7073 23.7372V25.3816H53.5434V16.0622C53.5434 12.5992 51.1374 10.666 47.499 10.666H32.1895V13.2918H47.6711C49.4755 13.2918 50.7073 14.4463 50.7073 16.2929V16.7257H46.2673C42.6004 16.7257 40.5664 18.5723 40.5664 21.2556C40.5664 23.9389 42.6864 25.7855 45.8662 25.7855ZM46.3242 23.3619C44.5768 23.3619 43.4311 22.4962 43.4311 21.1975C43.4311 19.9285 44.4623 19.0337 46.2097 19.0337H50.7073V19.4956C50.7073 21.6885 48.7018 23.3619 46.3242 23.3619Z" fill="#0E1D39"></path><path d="M38.5974 25.4021V8.03002C38.5974 6.43769 39.5804 5.51112 41.0834 5.51112C41.6076 5.51397 42.1269 5.612 42.616 5.80043L43.3388 3.34016C42.567 2.9903 41.7285 2.81231 40.8812 2.81852C37.701 2.81852 35.5908 4.81632 35.5908 8.03002V25.4021H38.5974Z" fill="#0E1D39"></path></g><defs><clipPath id="clip0_8063_20530"><rect width="80" height="24.2855" fill="white" transform="translate(0 1.5)"></rect></clipPath></defs></svg>