<svg xmlns="http://www.w3.org/2000/svg"
  viewBox="0 0 256 256"
  role="img"
  aria-labelledby="title desc">
  <title id="title">Asia</title>
  <desc id="desc">Minimal outline map of Asia.</desc>
  <path
    d="M 48.20 159.29 L 41.28 161.20 L 39.51 154.16 L 34.96 148.60 L 34.01 145.11 L 28.40 138.75 L 27.86 134.15 L 30.62 126.25 L 21.22 126.98 L 18.22 126.23 L 16.29 123.98 L 17.00 122.85 L 16.08 122.15 L 20.55 119.59 L 29.17 118.40 L 36.75 119.89 L 38.69 118.51 L 31.37 113.74 L 34.97 111.12 L 33.67 110.38 L 35.83 109.87 L 36.31 107.39 L 29.45 105.97 L 27.11 103.41 L 24.25 103.75 L 23.55 102.34 L 25.57 101.93 L 22.75 99.81 L 22.92 98.73 L 19.00 97.83 L 17.70 95.93 L 17.90 94.11 L 20.37 92.22 L 18.84 91.52 L 23.86 88.08 L 21.70 87.09 L 22.30 86.14 L 20.99 85.05 L 21.97 83.81 L 20.28 82.15 L 21.62 81.05 L 19.39 80.08 L 19.60 79.06 L 24.76 77.84 L 37.75 81.40 L 37.85 82.37 L 33.85 83.52 L 26.29 82.60 L 28.66 83.67 L 28.85 85.83 L 31.86 86.65 L 31.17 85.32 L 32.10 84.77 L 35.62 85.68 L 36.84 85.32 L 35.86 84.26 L 39.26 82.83 L 41.96 83.42 L 42.81 82.42 L 41.23 79.78 L 45.31 80.25 L 46.14 81.06 L 44.31 82.05 L 45.45 82.55 L 56.18 79.36 L 57.27 79.44 L 55.84 80.32 L 63.58 79.33 L 65.24 80.21 L 66.89 79.24 L 65.37 78.40 L 66.12 77.92 L 77.71 80.48 L 78.69 79.72 L 75.41 78.49 L 75.07 76.20 L 79.79 73.28 L 83.95 74.47 L 82.57 75.65 L 83.94 77.13 L 83.61 79.13 L 85.22 80.02 L 81.74 83.06 L 83.41 83.27 L 87.23 80.96 L 87.06 79.17 L 85.12 78.24 L 86.28 76.78 L 84.39 75.59 L 87.00 74.61 L 86.66 73.58 L 88.15 74.35 L 87.58 75.76 L 89.13 76.02 L 88.47 74.97 L 90.91 74.40 L 96.62 75.15 L 95.18 72.39 L 104.37 71.97 L 103.18 71.21 L 104.87 70.25 L 124.65 68.34 L 129.88 66.49 L 134.09 68.27 L 139.67 67.93 L 144.12 69.19 L 137.23 71.62 L 157.32 73.38 L 157.40 72.26 L 162.82 72.51 L 169.09 76.55 L 170.50 75.03 L 181.58 75.53 L 180.53 74.18 L 182.46 73.55 L 195.60 74.50 L 200.65 76.47 L 209.43 76.44 L 212.26 78.52 L 222.29 78.31 L 224.83 79.60 L 226.63 79.14 L 225.46 78.21 L 226.10 77.56 L 240.00 79.21 L 240.00 85.01 L 236.23 85.55 L 238.88 88.90 L 230.80 89.85 L 225.93 92.43 L 223.84 91.42 L 216.04 92.45 L 213.82 94.81 L 215.53 95.73 L 213.97 99.75 L 211.42 100.49 L 210.92 102.15 L 208.75 102.51 L 206.21 105.34 L 204.24 98.98 L 204.94 96.96 L 216.23 90.60 L 217.40 88.54 L 211.06 91.46 L 209.87 89.67 L 206.11 90.17 L 202.47 92.61 L 203.67 93.50 L 198.17 94.03 L 198.28 92.98 L 196.02 92.76 L 184.97 93.65 L 174.68 99.93 L 179.10 101.35 L 181.63 100.71 L 183.78 103.55 L 181.86 109.07 L 179.18 112.19 L 174.31 116.42 L 170.53 116.59 L 163.63 121.72 L 166.43 126.05 L 165.89 128.53 L 162.10 129.54 L 161.57 126.14 L 162.65 125.89 L 159.52 124.12 L 160.41 122.02 L 154.20 122.97 L 155.82 120.75 L 155.05 119.99 L 149.81 122.53 L 149.07 123.21 L 151.08 125.08 L 156.09 125.08 L 151.43 128.78 L 155.44 133.46 L 154.50 134.94 L 155.71 136.17 L 155.11 138.51 L 150.71 143.86 L 146.68 146.43 L 139.25 148.45 L 138.75 149.99 L 135.95 147.99 L 132.11 150.84 L 137.14 160.05 L 136.94 162.61 L 131.06 167.08 L 130.94 165.16 L 123.69 160.08 L 122.42 166.15 L 127.86 171.55 L 129.70 177.71 L 125.57 175.58 L 123.67 170.19 L 121.37 167.39 L 121.13 168.25 L 121.75 162.94 L 119.42 154.95 L 116.81 156.72 L 115.09 156.25 L 115.29 153.08 L 111.05 146.46 L 109.71 146.40 L 109.39 147.81 L 104.59 148.31 L 103.90 150.26 L 94.91 156.45 L 94.23 164.52 L 90.85 168.00 L 85.02 156.32 L 83.71 148.51 L 80.56 149.21 L 74.60 142.59 L 67.50 143.09 L 61.53 142.13 L 60.22 140.08 L 55.85 140.57 L 52.98 139.03 L 50.93 135.71 L 49.22 135.46 L 47.82 135.96 L 48.46 138.03 L 51.94 143.56 L 52.24 141.74 L 53.08 142.04 L 53.38 144.63 L 56.60 144.48 L 60.03 141.17 L 60.73 144.31 L 65.04 147.12 L 59.91 153.57 L 48.20 159.29 Z M 45.94 114.66 L 51.34 121.00 L 49.10 123.09 L 49.60 124.89 L 56.33 125.79 L 56.41 122.90 L 54.69 121.32 L 55.01 120.09 L 57.66 119.99 L 56.18 118.28 L 54.86 119.72 L 54.41 117.31 L 51.21 114.66 L 55.19 113.71 L 55.19 111.39 L 49.46 112.05 L 45.94 114.66 Z M 25.99 129.27 L 25.94 128.09 L 28.31 127.67 L 25.99 129.27 Z M 20.18 119.48 L 16.35 121.15 L 16.00 118.71 L 20.18 119.48 Z M 30.87 113.93 L 27.30 115.02 L 25.22 113.61 L 27.04 112.32 L 30.87 113.93 Z M 78.21 68.17 L 63.10 71.43 L 58.65 74.25 L 61.73 76.65 L 53.10 75.55 L 58.96 70.30 L 67.02 68.60 L 78.21 68.17 Z M 52.98 62.13 L 47.25 63.13 L 43.26 62.29 L 52.98 62.13 Z M 147.92 192.74 L 149.60 191.38 L 151.39 192.27 L 147.92 192.74 Z M 146.41 191.78 L 135.60 190.90 L 131.36 189.57 L 132.36 188.18 L 136.10 189.46 L 139.21 189.01 L 146.41 191.78 Z M 132.02 188.11 L 125.58 183.67 L 116.70 171.62 L 119.89 171.96 L 129.14 179.44 L 128.55 180.63 L 132.44 184.05 L 132.02 188.11 Z M 149.48 178.45 L 147.65 181.76 L 147.05 185.44 L 141.11 184.66 L 138.43 183.87 L 136.75 177.64 L 142.46 175.08 L 148.48 169.51 L 151.47 171.72 L 148.75 174.89 L 151.20 178.28 L 149.48 178.45 Z M 94.65 165.30 L 96.82 170.16 L 94.94 170.91 L 94.65 165.30 Z M 151.95 163.05 L 150.48 166.03 L 148.55 167.42 L 151.95 163.05 Z M 139.25 150.37 L 137.34 153.11 L 136.15 152.66 L 136.82 150.74 L 139.25 150.37 Z M 130.94 65.61 L 122.73 66.17 L 126.58 64.10 L 130.94 65.61 Z M 110.71 62.65 L 117.64 61.32 L 123.82 63.46 L 123.46 64.77 L 120.28 64.95 L 110.71 62.65 Z M 151.16 193.51 L 153.79 194.11 L 153.70 194.50 L 151.16 193.51 Z M 158.45 193.12 L 163.34 191.82 L 157.87 194.68 L 158.45 193.12 Z M 152.55 192.42 L 155.58 191.91 L 156.89 191.38 L 156.67 192.19 L 152.55 192.42 Z M 179.84 190.25 L 178.76 187.45 L 172.55 184.75 L 171.56 185.58 L 170.11 183.70 L 172.60 182.82 L 167.97 180.96 L 173.02 180.73 L 173.66 183.63 L 175.16 184.50 L 178.05 182.08 L 183.23 183.38 L 183.28 192.87 L 181.98 191.67 L 178.30 191.84 L 179.84 190.25 Z M 162.85 184.15 L 162.67 185.11 L 161.38 184.22 L 162.85 184.15 Z M 164.16 184.54 L 167.90 184.10 L 168.43 185.21 L 164.16 184.54 Z M 154.20 179.04 L 152.72 180.35 L 154.02 181.65 L 157.52 180.49 L 154.86 182.37 L 157.28 186.41 L 156.49 187.80 L 156.62 186.09 L 155.19 186.66 L 154.08 183.42 L 153.11 183.86 L 153.29 187.64 L 151.74 187.43 L 151.93 184.68 L 150.87 183.67 L 152.41 179.37 L 153.95 177.69 L 160.29 177.53 L 158.03 179.25 L 154.20 179.04 Z M 164.86 180.73 L 163.86 179.98 L 163.43 178.12 L 164.21 176.43 L 165.31 177.95 L 164.86 180.73 Z M 158.80 170.63 L 157.92 168.19 L 155.46 169.13 L 157.74 166.94 L 160.63 166.51 L 160.54 165.39 L 161.72 166.08 L 162.18 169.13 L 161.68 170.46 L 161.15 168.98 L 160.47 169.72 L 160.52 171.47 L 158.80 170.63 Z M 157.48 166.03 L 156.13 165.46 L 158.60 163.24 L 158.46 164.63 L 157.48 166.03 Z M 156.50 163.96 L 155.40 162.29 L 157.20 162.73 L 156.50 163.96 Z M 159.65 164.84 L 158.87 161.32 L 160.27 161.35 L 161.08 163.52 L 159.96 163.13 L 159.65 164.84 Z M 153.13 159.99 L 154.88 160.57 L 154.50 161.83 L 153.13 159.99 Z M 154.85 157.58 L 158.41 159.53 L 158.60 161.35 L 153.58 159.42 L 152.49 155.78 L 153.70 152.66 L 155.93 152.70 L 156.32 154.71 L 154.85 157.58 Z M 154.84 142.77 L 154.37 146.42 L 153.75 147.61 L 152.82 145.31 L 154.84 142.77 Z M 173.97 129.89 L 171.61 131.99 L 170.66 131.57 L 171.47 130.02 L 173.97 129.89 Z M 182.90 127.42 L 175.65 130.88 L 174.61 129.24 L 168.65 130.27 L 170.13 131.34 L 168.22 134.43 L 166.36 131.13 L 171.03 128.02 L 175.48 127.88 L 177.00 125.29 L 177.98 125.99 L 180.94 123.97 L 181.60 120.55 L 183.77 119.36 L 184.52 122.56 L 183.17 124.03 L 182.90 127.42 Z M 181.71 119.09 L 181.51 117.64 L 183.78 116.44 L 184.64 113.29 L 187.47 115.29 L 189.52 114.99 L 189.84 116.62 L 186.41 118.47 L 184.12 117.47 L 183.33 119.06 L 181.71 119.09 Z M 185.77 111.56 L 184.82 112.68 L 184.09 104.00 L 185.64 100.46 L 188.55 108.30 L 186.39 107.82 L 185.50 109.93 L 186.88 112.44 L 185.77 111.56 Z M 240.00 75.49 L 240.00 76.49 L 238.14 76.10 L 240.00 75.49 Z M 181.57 72.79 L 184.78 72.08 L 187.02 73.02 L 181.57 72.79 Z M 195.71 70.87 L 190.68 70.17 L 197.40 70.30 L 195.71 70.87 Z M 178.15 69.04 L 189.18 69.60 L 188.03 70.68 L 180.25 70.99 L 177.37 70.04 L 178.15 69.04 Z"
    fill="none"
    stroke="currentColor"
    stroke-width="1"
    stroke-linecap="round"
    stroke-linejoin="round"
    vector-effect="non-scaling-stroke"
  />
</svg>
